<?xml version="1.0" encoding="UTF-8"?>
<!DOCTYPE svg PUBLIC "-//W3C//DTD SVG 1.1//EN" "http://www.w3.org/Graphics/SVG/1.1/DTD/svg11.dtd">
<svg version="1.2" width="75.3mm" height="75.3mm" viewBox="0 0 7530 7530" preserveAspectRatio="xMidYMid"
     fill-rule="evenodd" stroke-width="28.222" stroke-linejoin="round" xmlns="http://www.w3.org/2000/svg"
     xmlns:ooo="http://xml.openoffice.org/svg/export"
     xml:space="preserve">
 <defs class="ClipPathGroup">
  <clipPath id="presentation_clip_path" clipPathUnits="userSpaceOnUse">
   <rect x="0" y="0" width="7530" height="7530"/>
  </clipPath>
     <clipPath id="presentation_clip_path_shrink" clipPathUnits="userSpaceOnUse">
   <rect x="7" y="7" width="7515" height="7515"/>
  </clipPath>
 </defs>
    <defs class="TextShapeIndex">
  <g ooo:slide="id1" ooo:id-list="id3"/>
 </defs>
    <defs class="EmbeddedBulletChars">
  <g id="bullet-char-template-57356" transform="scale(0.00048828125,-0.00048828125)">
   <path d="M 580,1141 L 1163,571 580,0 -4,571 580,1141 Z"/>
  </g>
        <g id="bullet-char-template-57354" transform="scale(0.00048828125,-0.00048828125)">
   <path d="M 8,1128 L 1137,1128 1137,0 8,0 8,1128 Z"/>
  </g>
        <g id="bullet-char-template-10146" transform="scale(0.00048828125,-0.00048828125)">
   <path d="M 174,0 L 602,739 174,1481 1456,739 174,0 Z M 1358,739 L 309,1346 659,739 1358,739 Z"/>
  </g>
        <g id="bullet-char-template-10132" transform="scale(0.00048828125,-0.00048828125)">
   <path d="M 2015,739 L 1276,0 717,0 1260,543 174,543 174,936 1260,936 717,1481 1274,1481 2015,739 Z"/>
  </g>
        <g id="bullet-char-template-10007" transform="scale(0.00048828125,-0.00048828125)">
   <path d="M 0,-2 C -7,14 -16,27 -25,37 L 356,567 C 262,823 215,952 215,954 215,979 228,992 255,992 264,992 276,990 289,987 310,991 331,999 354,1012 L 381,999 492,748 772,1049 836,1024 860,1049 C 881,1039 901,1025 922,1006 886,937 835,863 770,784 769,783 710,716 594,584 L 774,223 C 774,196 753,168 711,139 L 727,119 C 717,90 699,76 672,76 641,76 570,178 457,381 L 164,-76 C 142,-110 111,-127 72,-127 30,-127 9,-110 8,-76 1,-67 -2,-52 -2,-32 -2,-23 -1,-13 0,-2 Z"/>
  </g>
        <g id="bullet-char-template-10004" transform="scale(0.00048828125,-0.00048828125)">
   <path d="M 285,-33 C 182,-33 111,30 74,156 52,228 41,333 41,471 41,549 55,616 82,672 116,743 169,778 240,778 293,778 328,747 346,684 L 369,508 C 377,444 397,411 428,410 L 1163,1116 C 1174,1127 1196,1133 1229,1133 1271,1133 1292,1118 1292,1087 L 1292,965 C 1292,929 1282,901 1262,881 L 442,47 C 390,-6 338,-33 285,-33 Z"/>
  </g>
        <g id="bullet-char-template-9679" transform="scale(0.00048828125,-0.00048828125)">
   <path d="M 813,0 C 632,0 489,54 383,161 276,268 223,411 223,592 223,773 276,916 383,1023 489,1130 632,1184 813,1184 992,1184 1136,1130 1245,1023 1353,916 1407,772 1407,592 1407,412 1353,268 1245,161 1136,54 992,0 813,0 Z"/>
  </g>
        <g id="bullet-char-template-8226" transform="scale(0.00048828125,-0.00048828125)">
   <path d="M 346,457 C 273,457 209,483 155,535 101,586 74,649 74,723 74,796 101,859 155,911 209,963 273,989 346,989 419,989 480,963 531,910 582,859 608,796 608,723 608,648 583,586 532,535 482,483 420,457 346,457 Z"/>
  </g>
        <g id="bullet-char-template-8211" transform="scale(0.00048828125,-0.00048828125)">
   <path d="M -4,459 L 1135,459 1135,606 -4,606 -4,459 Z"/>
  </g>
        <g id="bullet-char-template-61548" transform="scale(0.00048828125,-0.00048828125)">
   <path d="M 173,740 C 173,903 231,1043 346,1159 462,1274 601,1332 765,1332 928,1332 1067,1274 1183,1159 1299,1043 1357,903 1357,740 1357,577 1299,437 1183,322 1067,206 928,148 765,148 601,148 462,206 346,322 231,437 173,577 173,740 Z"/>
  </g>
 </defs>
    <g>
  <g id="id2" class="Master_Slide">
   <g id="bg-id2" class="Background"/>
      <g id="bo-id2" class="BackgroundObjects"/>
  </g>
 </g>
    <g class="SlideGroup">
  <g>
   <g id="container-id1">
    <g id="id1" class="Slide" clip-path="url(#presentation_clip_path)">
     <g class="Page">
      <g class="Graphic">
       <g id="id3">
        <rect class="BoundingBox" stroke="none" fill="none" x="511" y="0" width="6526" height="7526"/>
           <defs>
         <clipPath id="clip_path_1" clipPathUnits="userSpaceOnUse">
          <path d="M 1872,123 L 5727,123 5727,3992 1872,3992 1872,123 Z"/>
         </clipPath>
        </defs>
           <g clip-path="url(#clip_path_1)">
         <path fill="rgb(44,103,145)" stroke="none"
               d="M 4785,358 C 4837,421 4883,482 4932,548 5567,1400 5758,2419 5573,3458 5561,3524 5526,3527 5477,3574 5172,3868 4879,4173 4696,4561 4620,4724 4581,4907 4543,5084 4532,5137 4570,5237 4612,5256 4659,5276 4757,5248 4795,5207 4990,4995 5176,4777 5356,4553 5479,4400 5585,4234 5710,4079 5744,4417 5738,4749 5583,5052 5518,5245 5434,5268 5329,5384 5210,5473 5074,5609 4989,5722 4857,5934 4864,6105 5062,6253 5074,6260 5139,6292 5160,6296 5116,6326 5077,6336 4974,6366 4970,6519 4842,6622 4805,6694 4787,6762 4781,6773 4775,6850 4727,7510 4629,8224 4384,8845 4301,9054 4200,9185 3992,9272 3968,9283 3851,9343 3836,9346 3887,9265 3897,9145 3829,9053 3781,8987 3587,8991 3524,8930 3536,8927 3620,8934 3632,8934 3731,8937 3823,8932 3852,8811 3876,8714 3824,8617 3726,8548 3659,8502 3613,8489 3556,8430 3542,8416 3521,8338 3535,8287 3537,8280 3546,8277 3551,8282 3616,8340 3700,8402 3754,8466 3788,8498 3831,8534 3862,8534 3893,8533 3912,8495 3949,8468 4035,8392 4065,8355 4119,8251 4129,8193 4108,8096 4090,8025 4015,7729 3991,7422 4069,7125 4124,6913 4203,6695 4321,6512 4510,6219 4519,5951 4321,5671 3983,5193 4022,4708 4296,4217 4491,3867 4742,3563 5020,3276 5078,3217 5116,3211 5131,3130 5334,2192 5209,1240 4761,405 4741,369 4574,136 4571,123 4577,119 4780,361 4785,358 L 4785,358 4785,358 4785,358 Z M 2952,5433 C 2941,5296 2939,5166 2919,5040 2837,4535 2570,4129 2229,3763 2202,3735 2177,3703 2145,3681 1974,3563 1922,3391 1900,3197 1777,2114 2052,1153 2771,326 2776,321 2918,135 2941,126 2740,477 2499,821 2386,1409 2276,1978 2275,2542 2394,3108 2405,3165 2447,3223 2490,3267 2789,3582 3070,3911 3242,4313 3324,4506 3380,4718 3404,4926 3436,5208 3261,5390 2952,5433 L 2952,5433 2952,5433 2952,5433 Z M 2648,6321 C 2921,6139 3123,6196 3237,6443 3359,6706 3436,7086 3449,7376 3380,7208 3285,6941 3218,6773 3186,6693 3145,6636 3047,6637 2956,6639 2896,6586 2876,6500 2867,6461 2856,6402 2832,6376 2793,6331 2727,6330 2648,6321 L 2648,6321 2648,6321 2648,6321 Z M 2552,5459 C 2197,5221 1940,4915 1891,4460 2087,4544 2441,5073 2552,5459 L 2552,5459 2552,5459 2552,5459 Z"/>
        </g>
           <defs>
         <clipPath id="clip_path_2" clipPathUnits="userSpaceOnUse">
          <path d="M 905,3610 L 6652,3610 6652,7511 905,7511 905,3610 Z"/>
         </clipPath>
        </defs>
           <g clip-path="url(#clip_path_2)">
         <path fill="rgb(135,199,231)" stroke="none"
               d="M 6607,4579 C 6416,4187 5951,4533 5834,4411 5234,3791 4508,3639 3936,3611 3936,3611 3679,3609 3622,3611 3048,3625 2322,3791 1723,4411 1605,4533 1141,4187 950,4579 728,5035 1400,5083 1364,5285 1300,5650 1343,6194 1392,6730 1476,7638 797,9809 2211,10681 2476,10846 3194,10940 3819,10953 3820,10953 3820,10953 3821,10953 3822,10953 3823,10953 3824,10953 4448,10940 5080,10846 5345,10681 6759,9809 6080,7638 6165,6730 6214,6194 6257,5650 6192,5285 6157,5083 6828,5035 6607,4579 L 6607,4579 6607,4579 Z"/>
               <path fill="rgb(217,214,212)" stroke="none"
                     d="M 4774,4856 C 3818,4967 3946,5964 4316,6286 5003,6888 5717,6286 5638,5679 5563,5096 5071,4821 4774,4856 L 4774,4856 4774,4856 Z"/>
               <path fill="rgb(24,23,23)" stroke="none"
                     d="M 5163,5713 C 5163,5894 5018,6042 4837,6042 4656,6042 4509,5894 4509,5713 4509,5533 4656,5387 4837,5387 5018,5387 5163,5533 5163,5713 L 5163,5713 5163,5713 Z"/>
               <path fill="rgb(255,255,255)" stroke="none"
                     d="M 4855,5574 C 4855,5631 4808,5678 4751,5678 4695,5678 4648,5631 4648,5574 4648,5518 4695,5471 4751,5471 4808,5471 4855,5518 4855,5574 L 4855,5574 4855,5574 Z"/>
               <path fill="rgb(173,134,122)" stroke="none"
                     d="M 3781,6364 C 3324,6432 3161,6564 3195,6772 3252,7110 4333,7072 4365,6790 4393,6545 3959,6338 3781,6364 L 3781,6364 3781,6364 Z"/>
               <path fill="rgb(35,31,32)" stroke="none"
                     d="M 3485,6500 C 3407,6784 4105,6741 4088,6558 4079,6453 3985,6316 3736,6325 3640,6328 3521,6370 3485,6500 L 3485,6500 3485,6500 Z"/>
               <path fill="rgb(217,214,212)" stroke="none"
                     d="M 3506,6957 C 3482,6968 3439,7248 3570,7263 3658,7273 3900,7300 3957,7264 4069,7192 4056,7019 3995,6977 3891,6908 3537,6943 3506,6957 L 3506,6957 3506,6957 Z"/>
               <path fill="rgb(217,214,212)" stroke="none"
                     d="M 2782,4856 C 3738,4967 3609,5964 3241,6286 2554,6888 1839,6286 1918,5679 1993,5096 2485,4821 2782,4856 L 2782,4856 2782,4856 Z"/>
               <path fill="rgb(24,23,23)" stroke="none"
                     d="M 2393,5713 C 2393,5894 2538,6042 2719,6042 2900,6042 3047,5894 3047,5713 3047,5533 2900,5387 2719,5387 2538,5387 2393,5533 2393,5713 L 2393,5713 2393,5713 Z"/>
               <path fill="rgb(255,255,255)" stroke="none"
                     d="M 2702,5574 C 2702,5631 2748,5678 2806,5678 2862,5678 2909,5631 2909,5574 2909,5518 2862,5471 2806,5471 2748,5471 2702,5518 2702,5574 L 2702,5574 2702,5574 Z"/>
               <path fill="rgb(173,134,122)" stroke="none"
                     d="M 6214,8644 C 6530,8648 6373,7973 6179,8106 6083,8172 6068,8324 6067,8452 6067,8527 6125,8644 6214,8644 L 6214,8644 6214,8644 Z"/>
               <path fill="rgb(173,134,122)" stroke="none"
                     d="M 1344,8644 C 1027,8648 1184,7973 1378,8106 1474,8172 1489,8324 1490,8452 1490,8527 1433,8644 1344,8644 L 1344,8644 1344,8644 Z"/>
               <path fill="rgb(173,134,122)" stroke="none"
                     d="M 5615,10718 C 5444,10461 5289,10660 5039,10787 4921,10847 5233,11063 5582,10901 5674,10858 5672,10802 5615,10718 L 5615,10718 5615,10718 Z"/>
               <path fill="rgb(173,134,122)" stroke="none"
                     d="M 1940,10746 C 2113,10490 2268,10688 2517,10816 2635,10876 2323,11092 1974,10931 1881,10887 1883,10831 1940,10746 L 1940,10746 1940,10746 Z"/>
               <path fill="rgb(76,138,194)" stroke="none"
                     d="M 6069,4648 C 6053,4709 6130,4700 6159,4885 6170,4953 6417,4786 6317,4661 6234,4559 6086,4589 6069,4648 L 6069,4648 6069,4648 Z"/>
               <path fill="rgb(76,138,194)" stroke="none"
                     d="M 1486,4648 C 1502,4709 1425,4700 1396,4885 1385,4953 1139,4786 1239,4661 1320,4559 1470,4589 1486,4648 L 1486,4648 1486,4648 Z"/>
        </g>
       </g>
      </g>
     </g>
    </g>
   </g>
  </g>
 </g>
</svg>